<svg width="50" height="10" viewBox="0 0 50 10" fill="none" xmlns="http://www.w3.org/2000/svg">
<path d="M50.0002 2.16H47.4238V0H50.0002V2.16ZM50.0002 9.79636H47.4238V3.27273H50.0002V9.79636Z" fill="white"/>
<path d="M46.539 7.61468H43.0808V8.73832H45.6744V9.7965H41.369V8.69468H40.5044V5.45468H41.369V4.36377H45.6744V5.46559H46.539V7.61468ZM43.9453 6.52377V5.46559H43.0981V6.52377H43.9453Z" fill="white"/>
<path d="M39.6193 6.5237H37.8902V9.79643H35.3138V6.5237H34.4492V5.45461H35.3224V3.27279H36.1783V2.18188H39.6193V3.25098H37.8902V5.46552H39.6193V6.5237Z" fill="white"/>
<path d="M33.571 2.16H30.9946V0H33.571V2.16ZM33.571 9.79636H30.9946V3.27273H33.571V9.79636Z" fill="white"/>
<path d="M30.1167 9.79643H27.5403V3.25098H26.6758V2.18188H30.1167V9.79643Z" fill="white"/>
<path d="M25.7914 9.7965H23.2151V5.43286H22.3246V9.7965H19.7568V5.45468H20.6214V4.36377H24.9269V5.46559H25.7914V9.7965Z" fill="white"/>
<path d="M18.8725 7.61468H15.4143V8.73832H18.0079V9.7965H13.7024V8.69468H12.8379V5.45468H13.7024V4.36377H18.0079V5.46559H18.8725V7.61468ZM16.2788 6.52377V5.46559H15.4316V6.52377H16.2788Z" fill="white"/>
<path d="M11.9536 9.79643H9.37717V5.43279H8.48668V9.79643H5.91895V2.18188H8.49532V4.37461H11.089V5.46552H11.9536V9.79643Z" fill="white"/>
<path d="M5.03461 9.7965H-0.135443V8.69468H-1V5.45468H-0.135443V4.36377H5.03461V5.43286H1.57638V8.72741H5.03461V9.7965Z" fill="white"/>
</svg>
