<svg width="52" height="20" viewBox="0 0 52 20" fill="none" xmlns="http://www.w3.org/2000/svg">
<path d="M1.6001 13.6H0.600098V9.19995H1.6001V7.69995H5.6001V9.19995H6.6001V10.7H4.6001V9.19995H2.6001V13.6H6.5001V15.1H1.6001V13.6Z" fill="white"/>
<path d="M8.1001 4.80005H10.1001V7.80005H13.1001V9.30005H14.1001V15.2H12.1001V9.20005H10.1001V15H8.1001V4.80005Z" fill="white"/>
<path d="M16 13.6H15V9.19995H16V7.69995H20V9.19995H21V12.2H17V13.7H20.9V15.2H16V13.6ZM17 9.19995V10.6H18.9V9.19995H17Z" fill="white"/>
<path d="M22.4003 7.69995H27.3003V9.19995H28.3003V15.1H26.3003V9.19995H24.3003V15.1H22.3003V7.69995H22.4003Z" fill="white"/>
<path d="M29.8999 4.80005H31.7999V15.1H29.8999V4.80005Z" fill="white"/>
<path d="M33.5 4.80005H35.4V6.20005H33.5V4.80005ZM33.5 7.80005H35.4V15.1H33.5V7.80005Z" fill="white"/>
<path d="M36.9999 6.20005H37.9999V4.80005H40.9999V6.30005H38.9999V7.80005H40.8999V9.30005H38.8999V15.2H36.8999L36.9999 6.20005Z" fill="white"/>
<path d="M42.8003 13.6H41.8003V9.19995H42.8003V7.69995H46.8003V9.19995H47.8003V12.2H43.9003V13.7H47.8003V15.2H42.9003L42.8003 13.6ZM43.8003 9.19995V10.6H45.7003V9.19995H43.8003Z" fill="white"/>
<path d="M49.3003 4.80005H51.2003V6.20005H49.3003V4.80005ZM49.3003 7.80005H51.2003V15.1H49.3003V7.80005Z" fill="white"/>
</svg>
